<svg xmlns="http://www.w3.org/2000/svg" width="96.528" height="16.392" viewBox="0 0 96.528 16.392">
  <g id="Group_47" data-name="Group 47" transform="translate(-189 -3602)">
    <path id="Path_100" data-name="Path 100" d="M4.56.192A3.985,3.985,0,0,1,2.488-.344a3.839,3.839,0,0,1-1.424-1.48A4.436,4.436,0,0,1,.544-4a4.382,4.382,0,0,1,.528-2.176A3.861,3.861,0,0,1,2.52-7.656a4.1,4.1,0,0,1,2.1-.536A3.52,3.52,0,0,1,6.56-7.64,3.8,3.8,0,0,1,7.928-6.048a5.637,5.637,0,0,1,.5,2.48H2.4a2.236,2.236,0,0,0,.744,1.584,2.326,2.326,0,0,0,1.576.576,2.109,2.109,0,0,0,1.216-.328,2.288,2.288,0,0,0,.752-.856l1.584.672A4.113,4.113,0,0,1,7.416-.8a3.577,3.577,0,0,1-1.232.736A4.783,4.783,0,0,1,4.56.192ZM2.512-4.944H6.5A1.772,1.772,0,0,0,6.16-5.9a1.858,1.858,0,0,0-.7-.568,2.075,2.075,0,0,0-.88-.192,2.4,2.4,0,0,0-.9.184A1.943,1.943,0,0,0,2.9-5.9,1.766,1.766,0,0,0,2.512-4.944ZM12.384.192a3.466,3.466,0,0,1-2.232-.64A2.192,2.192,0,0,1,9.36-2.256a2.271,2.271,0,0,1,.84-1.9,3.724,3.724,0,0,1,2.344-.656h2.032a2.422,2.422,0,0,0-.5-1.344A1.478,1.478,0,0,0,12.9-6.624a2.042,2.042,0,0,0-1.008.24,2,2,0,0,0-.736.752L9.584-6.208a4.015,4.015,0,0,1,.68-.984,3.051,3.051,0,0,1,1.072-.728,4.023,4.023,0,0,1,1.56-.272,3.831,3.831,0,0,1,1.952.456,2.764,2.764,0,0,1,1.16,1.3,5.034,5.034,0,0,1,.376,2.048L16.336,0H14.688L14.64-.976a2.2,2.2,0,0,1-.888.864A2.863,2.863,0,0,1,12.384.192Zm.224-1.5a2.053,2.053,0,0,0,1.048-.264,1.842,1.842,0,0,0,.7-.712,2.014,2.014,0,0,0,.248-.992v-.16H13.12a2.8,2.8,0,0,0-1.5.3.959.959,0,0,0-.432.84.841.841,0,0,0,.376.728A1.8,1.8,0,0,0,12.608-1.312Zm8.5,1.5a4.348,4.348,0,0,1-1.472-.24,3.348,3.348,0,0,1-1.152-.68,3,3,0,0,1-.736-1.032L19.3-2.448a2.037,2.037,0,0,0,.712.752,1.9,1.9,0,0,0,1.048.3,2,2,0,0,0,1-.216.665.665,0,0,0,.376-.6.651.651,0,0,0-.288-.568,2.463,2.463,0,0,0-.816-.328l-.752-.208a3.8,3.8,0,0,1-1.776-.92,1.98,1.98,0,0,1-.64-1.448,2.3,2.3,0,0,1,.776-1.856,3.367,3.367,0,0,1,2.232-.656,4.061,4.061,0,0,1,1.352.216,3.207,3.207,0,0,1,1.064.608,2.087,2.087,0,0,1,.624.92l-1.488.672a1.161,1.161,0,0,0-.608-.616,2.254,2.254,0,0,0-.992-.216,1.37,1.37,0,0,0-.848.232.769.769,0,0,0-.3.648.556.556,0,0,0,.272.44,2.261,2.261,0,0,0,.784.328l.944.224a3.173,3.173,0,0,1,1.28.6,2.675,2.675,0,0,1,.736.912,2.343,2.343,0,0,1,.24,1.016,2.049,2.049,0,0,1-.408,1.264A2.625,2.625,0,0,1,22.7-.1,4.1,4.1,0,0,1,21.1.192Zm5.808,3.2a2.961,2.961,0,0,1-.856-.144,5.352,5.352,0,0,1-.9-.368l.672-1.456a5.494,5.494,0,0,0,.56.232,1.35,1.35,0,0,0,.416.088,1.042,1.042,0,0,0,.648-.2A1.374,1.374,0,0,0,27.872.96L28.3-.064,24.752-8H26.7l2.432,5.888L31.52-8h1.952L29.76.848a12.066,12.066,0,0,1-.68,1.344,2.537,2.537,0,0,1-.856.888A2.489,2.489,0,0,1,26.912,3.392ZM35.344,0V-6.528H33.968V-8h1.376v-.848a2.752,2.752,0,0,1,.632-1.944,2.488,2.488,0,0,1,1.912-.68,3.214,3.214,0,0,1,.888.136,4.915,4.915,0,0,1,.9.36l-.656,1.328a3.388,3.388,0,0,0-.536-.208,1.561,1.561,0,0,0-.408-.064.829.829,0,0,0-.712.312,1.73,1.73,0,0,0-.232,1.016V-8h2.1v1.472h-2.1V0Zm5.344,0V-11.2H42.48V0Zm7.456.192a4.221,4.221,0,0,1-2.136-.536,3.828,3.828,0,0,1-1.464-1.48A4.382,4.382,0,0,1,44.016-4a4.436,4.436,0,0,1,.52-2.176,3.787,3.787,0,0,1,1.448-1.48,4.177,4.177,0,0,1,2.128-.536,4.177,4.177,0,0,1,2.128.536,3.787,3.787,0,0,1,1.448,1.48A4.436,4.436,0,0,1,52.208-4,4.492,4.492,0,0,1,51.7-1.824a3.732,3.732,0,0,1-1.44,1.48A4.145,4.145,0,0,1,48.144.192Zm0-1.648a2.118,2.118,0,0,0,1.168-.328,2.247,2.247,0,0,0,.8-.9A2.881,2.881,0,0,0,50.4-4a2.817,2.817,0,0,0-.3-1.32,2.306,2.306,0,0,0-.808-.9,2.147,2.147,0,0,0-1.184-.328,2.187,2.187,0,0,0-1.184.32,2.179,2.179,0,0,0-.8.9A2.932,2.932,0,0,0,45.84-4a2.817,2.817,0,0,0,.3,1.32,2.285,2.285,0,0,0,.816.9A2.187,2.187,0,0,0,48.144-1.456ZM55.344,0l-2.72-8h1.808l1.84,5.568L58.112-8h1.76L61.7-2.512,63.536-8h1.808l-2.72,8H60.848L58.992-5.744,57.12,0ZM69.408.192a4.348,4.348,0,0,1-1.472-.24,3.348,3.348,0,0,1-1.152-.68,3,3,0,0,1-.736-1.032L67.6-2.448a2.037,2.037,0,0,0,.712.752,1.9,1.9,0,0,0,1.048.3,2,2,0,0,0,1-.216.665.665,0,0,0,.376-.6.651.651,0,0,0-.288-.568,2.463,2.463,0,0,0-.816-.328l-.752-.208a3.8,3.8,0,0,1-1.776-.92,1.98,1.98,0,0,1-.64-1.448,2.3,2.3,0,0,1,.776-1.856,3.367,3.367,0,0,1,2.232-.656,4.061,4.061,0,0,1,1.352.216,3.207,3.207,0,0,1,1.064.608,2.087,2.087,0,0,1,.624.92l-1.488.672a1.161,1.161,0,0,0-.608-.616,2.254,2.254,0,0,0-.992-.216,1.37,1.37,0,0,0-.848.232.769.769,0,0,0-.3.648.556.556,0,0,0,.272.44,2.261,2.261,0,0,0,.784.328l.944.224a3.173,3.173,0,0,1,1.28.6,2.675,2.675,0,0,1,.736.912,2.343,2.343,0,0,1,.24,1.016A2.049,2.049,0,0,1,72.12-.944a2.625,2.625,0,0,1-1.112.84A4.1,4.1,0,0,1,69.408.192Z" transform="translate(213 3615)"/>
    <path id="feather-pointed-solid-full" d="M88.232,64A1.1,1.1,0,0,1,89.4,65.163a23.575,23.575,0,0,1-1.474,6.357.5.5,0,0,1-.325.3l-2.575.774a.293.293,0,0,0,.086.573h1.229a.488.488,0,0,1,.43.735c-.127.213-.264.42-.4.624a.515.515,0,0,1-.267.194l-3.11.93a.293.293,0,0,0,.086.573h.509a.441.441,0,0,1,.28.809,7.158,7.158,0,0,1-5.807,1,3.134,3.134,0,0,1-1.1-.57l-2.33,2.33a.72.72,0,0,1-1.019-1.019l2.547-2.547.016.016a.491.491,0,0,1,.086-.115l4.992-4.995a.72.72,0,0,0-1.019-1.019l-4.275,4.272a.457.457,0,0,1-.8-.261,7.407,7.407,0,0,1,2.311-5.934c2.9-2.9,8.092-3.97,10.757-4.186Z" transform="translate(115.6 3538.005)"/>
  </g>
</svg>
